<svg width="40" height="40" viewBox="0 0 40 40" fill="none" xmlns="http://www.w3.org/2000/svg">
<path d="M5.82861 38.4229V31.3372H12.9143" stroke="#F5F5F5" stroke-width="1.6" stroke-linecap="round" stroke-linejoin="round"/>
<path d="M38.1115 16.6142C38.8633 20.6255 38.262 24.7729 36.4022 28.4056C34.5423 32.0383 31.5289 34.9508 27.835 36.6859C24.1411 38.4211 19.9757 38.8808 15.9923 37.9929C12.0089 37.1049 8.43302 34.9197 5.82574 31.78M1.8886 23.3857C1.1368 19.3744 1.73801 15.227 3.5979 11.5943C5.4578 7.96158 8.47111 5.04915 12.165 3.31399C15.8589 1.57884 20.0244 1.11915 24.0078 2.00706C27.9912 2.89498 31.567 5.08024 34.1743 8.21996" stroke="#F5F5F5" stroke-width="1.6" stroke-linecap="round" stroke-linejoin="round"/>
<path d="M34.1715 1.57715V8.66286H27.0857M11.6857 20.9543C10.6829 20.78 10.6829 19.34 11.6857 19.1657C13.4608 18.8552 15.1034 18.0239 16.4048 16.7775C17.7062 15.531 18.6076 13.9257 18.9943 12.1657L19.0543 11.8886C19.2715 10.8971 20.6829 10.8914 20.9086 11.88L20.9829 12.2029C21.382 13.9561 22.2907 15.5521 23.5947 16.79C24.8988 18.028 26.5399 18.8526 28.3115 19.16C29.32 19.3343 29.32 20.7829 28.3115 20.96C26.5402 21.2672 24.8994 22.0914 23.5954 23.3288C22.2914 24.5662 21.3825 26.1616 20.9829 27.9143L20.9086 28.2343C20.6829 29.2229 19.2715 29.2171 19.0543 28.2257L18.9972 27.9514C18.6101 26.1906 17.7079 24.5848 16.4054 23.3383C15.1029 22.0917 13.459 21.2609 11.6829 20.9514L11.6857 20.9543Z" stroke="#F5F5F5" stroke-width="1.6" stroke-linecap="round" stroke-linejoin="round"/>
</svg>
