<svg width="36" height="36" viewBox="0 0 36 36" fill="none" xmlns="http://www.w3.org/2000/svg">
<path d="M17.9999 34.6667C27.2047 34.6667 34.6666 27.2048 34.6666 18C34.6666 8.79529 27.2047 1.33337 17.9999 1.33337C8.79517 1.33337 1.33325 8.79529 1.33325 18C1.33325 27.2048 8.79517 34.6667 17.9999 34.6667Z" stroke="#60A5FA" stroke-width="2" stroke-linecap="round" stroke-linejoin="round"/>
<path d="M11.5483 17.3301L18.2133 8.34672C18.7349 7.64338 19.7116 8.08005 19.7116 9.01672V15.9701C19.7116 16.5301 20.0949 16.9851 20.5683 16.9851H23.8083C24.5449 16.9851 24.9383 18.0151 24.4516 18.6701L17.7866 27.6534C17.2649 28.3567 16.2883 27.92 16.2883 26.9834V20.0301C16.2883 19.4701 15.9049 19.0151 15.4316 19.0151H12.1916C11.4566 19.0151 11.0633 17.9851 11.5499 17.3301" stroke="#60A5FA" stroke-width="2.5" stroke-linecap="round" stroke-linejoin="round"/>
</svg>
