<svg width="30" height="34" viewBox="0 0 30 34" fill="none" xmlns="http://www.w3.org/2000/svg">
<path d="M19.9999 27V28.25C19.9999 29.5761 19.4731 30.8479 18.5354 31.7855C17.5977 32.7232 16.326 33.25 14.9999 33.25C13.6738 33.25 12.402 32.7232 11.4644 31.7855C10.5267 30.8479 9.9999 29.5761 9.9999 28.25V27M28.4124 24.4555C26.4061 22 24.9897 20.75 24.9897 13.9805C24.9897 7.78125 21.8241 5.57266 19.2186 4.5C18.8726 4.35781 18.5468 4.03125 18.4413 3.67578C17.9843 2.12031 16.703 0.75 14.9999 0.75C13.2968 0.75 12.0147 2.12109 11.5624 3.67734C11.4569 4.03672 11.1311 4.35781 10.7851 4.5C8.17646 5.57422 5.01396 7.775 5.01396 13.9805C5.01005 20.75 3.59365 22 1.5874 24.4555C0.756148 25.4727 1.48427 27 2.93818 27H27.0694C28.5155 27 29.239 25.468 28.4124 24.4555Z" stroke="#60A5FA" stroke-width="1.5" stroke-linecap="round" stroke-linejoin="round"/>
</svg>
