<svg width="26" height="34" viewBox="0 0 26 34" fill="none" xmlns="http://www.w3.org/2000/svg">
<path d="M20.6667 10.3334C21.9928 10.3334 23.2646 10.8602 24.2023 11.7978C25.14 12.7355 25.6667 14.0073 25.6667 15.3334V28.6667C25.6667 29.9928 25.14 31.2646 24.2023 32.2022C23.2646 33.1399 21.9928 33.6667 20.6667 33.6667H5.66675C4.34067 33.6667 3.0689 33.1399 2.13121 32.2022C1.19353 31.2646 0.666748 29.9928 0.666748 28.6667V15.3334C0.666748 14.0073 1.19353 12.7355 2.13121 11.7978C3.0689 10.8602 4.34067 10.3334 5.66675 10.3334V7.83337C5.66675 3.66671 9.00008 0.333374 13.1667 0.333374C17.3334 0.333374 20.6667 3.66671 20.6667 7.83337V10.3334ZM5.66675 12C4.78269 12 3.93485 12.3512 3.30973 12.9764C2.6846 13.6015 2.33341 14.4493 2.33341 15.3334V28.6667C2.33341 29.5508 2.6846 30.3986 3.30973 31.0237C3.93485 31.6488 4.78269 32 5.66675 32H20.6667C21.5508 32 22.3986 31.6488 23.0238 31.0237C23.6489 30.3986 24.0001 29.5508 24.0001 28.6667V15.3334C24.0001 14.4493 23.6489 13.6015 23.0238 12.9764C22.3986 12.3512 21.5508 12 20.6667 12H5.66675ZM19.0001 10.3334V7.83337C19.0001 6.28628 18.3855 4.80255 17.2915 3.70858C16.1976 2.61462 14.7138 2.00004 13.1667 2.00004C11.6197 2.00004 10.1359 2.61462 9.04196 3.70858C7.948 4.80255 7.33341 6.28628 7.33341 7.83337V10.3334H19.0001ZM13.1667 20.3334C12.5037 20.3334 11.8678 20.5968 11.399 21.0656C10.9301 21.5344 10.6667 22.1703 10.6667 22.8334C10.6667 23.4964 10.9301 24.1323 11.399 24.6011C11.8678 25.07 12.5037 25.3334 13.1667 25.3334C13.8298 25.3334 14.4657 25.07 14.9345 24.6011C15.4034 24.1323 15.6667 23.4964 15.6667 22.8334C15.6667 22.1703 15.4034 21.5344 14.9345 21.0656C14.4657 20.5968 13.8298 20.3334 13.1667 20.3334ZM13.1667 18.6667C14.2718 18.6667 15.3316 19.1057 16.113 19.8871C16.8944 20.6685 17.3334 21.7283 17.3334 22.8334C17.3334 23.9384 16.8944 24.9983 16.113 25.7797C15.3316 26.5611 14.2718 27 13.1667 27C12.0617 27 11.0019 26.5611 10.2205 25.7797C9.43907 24.9983 9.00008 23.9384 9.00008 22.8334C9.00008 21.7283 9.43907 20.6685 10.2205 19.8871C11.0019 19.1057 12.0617 18.6667 13.1667 18.6667Z" fill="#60A5FA"/>
</svg>
