<svg width="14" height="12" viewBox="0 0 14 12" fill="none" xmlns="http://www.w3.org/2000/svg">
<path d="M9.26042 7.19477C9.26042 6.00002 8.54042 5.59052 7.10042 5.41952C6.07217 5.28283 5.86686 5.01002 5.86686 4.53189C5.86686 4.05377 6.20999 3.74664 6.89511 3.74664C7.51217 3.74664 7.8553 3.95139 8.0263 4.46383C8.04425 4.51329 8.07686 4.5561 8.11978 4.58656C8.16269 4.61701 8.21387 4.63365 8.26649 4.63427H8.81492C8.8466 4.63511 8.87812 4.62952 8.90757 4.61782C8.93702 4.60612 8.96378 4.58856 8.98624 4.5662C9.0087 4.54385 9.02639 4.51717 9.03822 4.48777C9.05006 4.45838 9.05581 4.42689 9.05511 4.39521V4.36146C8.98809 3.99071 8.8005 3.65248 8.52149 3.39931C8.24248 3.14613 7.88767 2.99219 7.51217 2.96139V2.14239C7.51217 2.00571 7.40924 1.90333 7.23824 1.86902H6.72355C6.58686 1.86902 6.48392 1.97139 6.44961 2.14239V2.92764C5.4208 3.06377 4.76999 3.74664 4.76999 4.60052C4.76999 5.72664 5.45511 6.17046 6.89511 6.34146C7.8553 6.51189 8.16355 6.71721 8.16355 7.26339C8.16355 7.80902 7.68374 8.18477 7.03236 8.18477C6.1408 8.18477 5.83255 7.80958 5.72961 7.29714C5.69586 7.16102 5.59236 7.09239 5.48942 7.09239H4.90667C4.87504 7.09163 4.84359 7.09728 4.8142 7.10901C4.78482 7.12075 4.75812 7.13832 4.73572 7.16067C4.71332 7.18301 4.69569 7.20967 4.68389 7.23903C4.67208 7.26838 4.66635 7.29983 4.66705 7.33146V7.36521C4.80374 8.21908 5.35274 8.83333 6.48392 9.00433V9.82389C6.48392 9.96002 6.58686 10.063 6.75786 10.0967H7.27255C7.40924 10.0967 7.51217 9.99433 7.54649 9.82389V9.00377C8.5753 8.83333 9.26042 8.11614 9.26042 7.19421V7.19477Z" fill="white"/>
<path d="M5.25136 10.7796C2.57724 9.82331 1.20586 6.85331 2.20036 4.22475C2.71449 2.79037 3.84567 1.69856 5.25136 1.18612C5.38861 1.11806 5.45667 1.01569 5.45667 0.844688V0.366563C5.45667 0.230438 5.38861 0.128063 5.25136 0.09375C5.21705 0.09375 5.14842 0.09375 5.11411 0.1275C4.3426 0.368432 3.62637 0.759597 3.00666 1.27847C2.38695 1.79735 1.876 2.43368 1.50322 3.15084C1.13045 3.868 0.903221 4.65181 0.834617 5.45715C0.766012 6.26248 0.85739 7.07344 1.10349 7.84331C1.71999 9.75581 3.1943 11.2239 5.11411 11.8382C5.25136 11.9062 5.38861 11.8382 5.42236 11.7015C5.45667 11.6677 5.45667 11.6329 5.45667 11.5648V11.0867C5.45667 10.9843 5.3543 10.8482 5.25136 10.7796ZM8.88511 0.128062C8.74786 0.0594374 8.61061 0.128062 8.57686 0.264187C8.54255 0.2985 8.54255 0.332813 8.54255 0.400875V0.879C8.54255 1.01569 8.64492 1.15181 8.74786 1.22044C11.422 2.17669 12.7934 5.14669 11.7989 7.77525C11.2847 9.20963 10.1535 10.3014 8.74786 10.8139C8.61061 10.8819 8.54255 10.9843 8.54255 11.1553V11.6334C8.54255 11.7696 8.61061 11.8719 8.74786 11.9062C8.78217 11.9062 8.8508 11.9062 8.88511 11.8725C9.65662 11.6316 10.3728 11.2404 10.9926 10.7215C11.6123 10.2027 12.1232 9.56632 12.496 8.84916C12.8688 8.132 13.096 7.34819 13.1646 6.54285C13.2332 5.73752 13.1418 4.92656 12.8957 4.15669C12.2792 2.21044 10.7706 0.742312 8.88511 0.128062Z" fill="white"/>
</svg>
