<svg width="18" height="16" viewBox="0 0 18 16" fill="none" xmlns="http://www.w3.org/2000/svg">
<path d="M9.00022 16L0.111328 6.13333L3.50195 0H14.4985L17.8891 6.13333L9.00022 16ZM9.88911 7V5.78C11.4891 5.86889 12.9824 6.22 13.4447 6.67444C12.9074 7.20444 10.9824 7.59 9.00022 7.59C7.018 7.59 5.09306 7.20444 4.55577 6.67444C5.01306 6.21889 6.51133 5.87444 8.11133 5.77444V7H9.88911ZM4.55577 6.67V7.40444C5.01306 7.86 6.50639 8.20444 8.11133 8.30444V11H9.88911V8.3C11.4891 8.21 12.9864 7.86 13.4447 7.40444V5.94C12.9864 5.48444 11.4891 5.13444 9.88911 5.04V4H12.5558V2.5H5.44466V4H8.11133V5.04C6.50639 5.13444 5.01306 5.48444 4.55577 5.94V6.67Z" fill="#009393"/>
</svg>
